PathFileType	4	(X/Y/Z)	D:\Research_projects\MuscleProsody\BulkSports2Dtrack\RetrackedSports2D\p1_sample60_cam3\p1_sample60_cam3_Sports2D\p1_sample60_cam3_Sports2D_px_person00.trc
DataRate	CameraRate	NumFrames	NumMarkers	Units	OrigDataRate	OrigDataStartFrame	OrigNumFrames
60	60	10	22	m	60	0	780
Frame#	Time	Hip			RHip			RKnee			RAnkle			RBigToe			RSmallToe			RHeel			LHip			LKnee			LAnkle			LBigToe			LSmallToe			LHeel			Neck			Head			Nose			RShoulder			RElbow			RWrist			LShoulder			LElbow			LWrist		
		X1	Y1	Z1	X2	Y2	Z2	X3	Y3	Z3	X4	Y4	Z4	X5	Y5	Z5	X6	Y6	Z6	X7	Y7	Z7	X8	Y8	Z8	X9	Y9	Z9	X10	Y10	Z10	X11	Y11	Z11	X12	Y12	Z12	X13	Y13	Z13	X14	Y14	Z14	X15	Y15	Z15	X16	Y16	Z16	X17	Y17	Z17	X18	Y18	Z18	X19	Y19	Z19	X20	Y20	Z20	X21	Y21	Z21	X22	Y22	Z22
0	0.0	218.47461248951973	561.9108925740785	0.0	196.6206840202453	571.9694134950213	0.0	208.39383167383767	682.9853437471234	0.0	218.45492593434855	775.4319951476965	0.0	186.5431483457858	809.0354084407277	0.0	183.18803883174934	800.6351208031016	0.0	228.54519935432782	790.5631465942892	0.0	243.65951046538078	573.6441243280382	0.0	248.73630851332328	688.0218128107554	0.0	257.14801594167966	788.9119873829179	0.0	221.79733121145267	824.1927115614144	0.0	243.65628753435794	827.5622088993235	0.0	270.601911521576	804.0539162603677	0.0	226.90079782094	358.4032271263759	0.0	210.06376906811838	274.3552359218225	0.0	176.45905644061938	321.4516517751787	0.0	193.22978316942357	390.31643095582797	0.0	183.16003626995814	477.7772518027739	0.0	162.93455042605464	546.7516732842597	0.0	275.68544764690824	388.69469698349104	0.0	289.10244385225485	486.23076776896215	0.0	277.2910989515795	570.2736098812042	0.0
1	0.016666666666666666	218.70627992693494	561.6924431958878	0.0	196.81283459974642	571.3216497709216	0.0	208.22047585732605	682.8535125458156	0.0	218.19357274153663	775.5207293266412	0.0	186.83357859083765	809.0020191363038	0.0	183.16124629163556	800.7841559618861	0.0	228.33325513747343	790.7665444270714	0.0	243.84190801012403	573.2203159826653	0.0	248.92156824512776	687.9040989893894	0.0	257.34448644961685	789.2199071041025	0.0	221.62518249065727	824.3745562903184	0.0	243.21321687893624	827.7504163502178	0.0	270.51848006978446	803.9484607960815	0.0	227.0498879809894	358.5482951028371	0.0	210.00314219695346	274.53552435120423	0.0	176.7446661780896	321.53862934766687	0.0	193.29711979340826	390.27459344550334	0.0	183.17968188197852	477.47791904085904	0.0	162.4894085196379	546.8695187320866	0.0	275.8473500378156	388.8431472725901	0.0	289.1979686144337	486.5055372213921	0.0	277.13443178168467	570.576040042586	0.0
2	0.03333333333333333	218.9254976520298	561.4741278316822	0.0	196.9950589840844	570.7155871949723	0.0	208.05835410808123	682.7220172017614	0.0	217.94131713106023	775.6035914560905	0.0	187.1053649266629	808.9736892846743	0.0	183.13092706194868	800.9426925985439	0.0	228.12934961959593	790.9511048653717	0.0	244.01585522144066	572.8146930039161	0.0	249.09797802010186	687.7894490704701	0.0	257.51662021488374	789.4945674579885	0.0	221.4653635111328	824.5461393603858	0.0	242.8069827668761	827.9276152062001	0.0	270.41729985757064	803.8414995789914	0.0	227.18303395710706	358.6779318343243	0.0	209.95020347162009	274.7005183020875	0.0	177.01935147602518	321.6118464469188	0.0	193.35578469873698	390.2342929865564	0.0	183.18988908997173	477.19129643824715	0.0	162.06431800906552	546.9650472977546	0.0	275.99434304145575	388.9806845868768	0.0	289.2796903730671	486.76430199501044	0.0	276.9872062984168	570.8533652872935	0.0
3	0.05	219.12397358424585	561.2673462465957	0.0	197.16119129125664	570.1926934042218	0.0	207.91700287629138	682.6036509995587	0.0	217.7035557272804	775.6787541286338	0.0	187.35145321120584	808.9504951688663	0.0	183.1018193204189	801.1126239802207	0.0	227.93756362294738	791.1055201352074	0.0	244.17229814909595	572.448154703282	0.0	249.26234097118837	687.6921583938561	0.0	257.64662965789495	789.7235880968116	0.0	221.32456182309892	824.7019895561193	0.0	242.45890206980727	828.089000440414	0.0	270.2899015125899	803.7426521339389	0.0	227.2936092252609	358.78465843959907	0.0	209.90953425533735	274.8449119508922	0.0	177.27885839180937	321.6715956666368	0.0	193.3986945781852	390.19425087959144	0.0	183.18388299565663	476.92920951924214	0.0	161.67069090390288	547.0278184481233	0.0	276.1205262838619	389.1009818345872	0.0	289.3401364813723	486.9945715325034	0.0	276.854325689314	571.0861839033638	0.0
4	0.06666666666666667	219.29701195688185	561.0845702879344	0.0	197.30808705730703	569.7833293332831	0.0	207.8007053095475	682.5145550294272	0.0	217.48319347134574	775.7520385382442	0.0	187.57133805278485	808.9306663647199	0.0	183.08093996340003	801.290418537368	0.0	227.7591585788817	791.2319263454954	0.0	244.30731403931	572.138031664652	0.0	249.41604029132816	687.6294729680658	0.0	257.72299872898844	789.9101424495989	0.0	221.20405053172684	824.8449085576385	0.0	242.17534285944402	828.2377576801531	0.0	270.1349252240905	803.6684868427908	0.0	227.37985990887353	358.8649017317877	0.0	209.88471744684657	274.96847772039933	0.0	177.51954765502913	321.72098615657796	0.0	193.4237154833504	390.15435577564585	0.0	183.15995727259846	476.69672223820413	0.0	161.31482671988906	547.0544054219524	0.0	276.22039058429516	389.1980055908813	0.0	289.37989481725845	487.1863944288543	0.0	276.7383515648384	571.2631846670166	0.0
5	0.08333333333333333	219.44326899247795	560.9345022539842	0.0	197.434505758526	569.5000920756576	0.0	207.71014100282022	682.4663216004109	0.0	217.28403856280454	775.8301292720263	0.0	187.76979558537204	808.9124728505507	0.0	183.07512145739952	801.4688000581116	0.0	227.59628527089495	791.3387864869622	0.0	244.4199447031822	571.8934728134898	0.0	249.56172970776822	687.6124387510937	0.0	257.74259946552775	790.0622448969235	0.0	221.10320624173409	824.9797341182787	0.0	241.95378117936502	828.3780777540501	0.0	269.95683033698054	803.6312182748209	0.0	227.44380262584068	358.9166613541028	0.0	209.87650648200858	275.06965954088173	0.0	177.7376449772725	321.7631273923703	0.0	193.43163000462235	390.11675261941093	0.0	183.1191632508927	476.4938030023323	0.0	160.9997136597121	547.0468675356835	0.0	276.29104841474543	389.26620775733466	0.0	289.40452464521877	487.3341534206823	0.0	276.6411173682726	571.3801945445555	0.0
6	0.1	219.56369147564644	560.8207180921924	0.0	197.5396033519164	569.3385967742321	0.0	207.64398993785903	682.4617766164336	0.0	217.11285202469807	775.9139141638685	0.0	187.95368289567114	808.8966957312163	0.0	183.08903371027455	801.6395007468815	0.0	227.45409228447878	791.4321544464931	0.0	244.50985641036067	571.7158340736412	0.0	249.7000765175183	687.6407103367834	0.0	257.7129695634511	790.1836454027496	0.0	221.02412321973128	825.1066949748127	0.0	241.79001086818568	828.5079823190911	0.0	269.76644813133123	803.6303089557294	0.0	227.4898349575384	358.93936436269377	0.0	209.88114147746415	275.1435688881679	0.0	177.92880970198505	321.79973939302096	0.0	193.4244256575029	390.08700903090045	0.0	183.06361673489127	476.3187813695191	0.0	160.72762608014474	547.0090950153764	0.0	276.33462702185284	389.30081503443824	0.0	289.4192462725148	487.4373142069603	0.0	276.56508105765454	571.4378618451507	0.0
7	0.11666666666666667	219.65950026166243	560.746352041137	0.0	197.62204239650194	569.2857144124778	0.0	207.5996589597511	682.4993871049044	0.0	216.97631856553943	776.0005085780879	0.0	188.12494430160055	808.8875294629479	0.0	183.12254713762033	801.7953652879094	0.0	227.33677052012237	791.514519841978	0.0	244.57708589658202	571.6058768979503	0.0	249.82983227301824	687.7083856228506	0.0	257.648816106689	790.2762481548484	0.0	220.96722881068948	825.2227567154845	0.0	241.6749293555518	828.6210671194332	0.0	269.57804681468434	803.6585813809766	0.0	227.5235710432547	358.93573161253704	0.0	209.89259275123896	275.18771629659716	0.0	178.08876016772973	321.8307538789097	0.0	193.40597295644514	390.072184887409	0.0	182.99823493648393	476.17118847896836	0.0	160.49963569823333	546.9461701901637	0.0	276.35693710700934	389.29973694103603	0.0	289.42663938076777	487.4991644017578	0.0	276.51261866131216	571.4431010410215	0.0
8	0.13333333333333333	219.73157702696892	560.7151382043415	0.0	197.68065834472392	569.32527874104	0.0	207.57408998350158	682.5757364574865	0.0	216.8768990398144	776.0867768122633	0.0	188.27849495202344	808.890680854586	0.0	183.16950314640545	801.9318180049759	0.0	227.2433926146506	791.5862577547983	0.0	244.62388664387666	571.5658704865881	0.0	249.94982496300406	687.8099879017892	0.0	257.56448025115776	790.3454516459177	0.0	220.9265978823926	825.3262996308174	0.0	241.59261907624864	828.7125118952015	0.0	269.40296418439453	803.710505978578	0.0	227.54981115828542	358.9125964759875	0.0	209.90592682851263	275.2054344986886	0.0	178.214612863902	321.854036442947	0.0	193.38210368052214	390.07733368059405	0.0	182.93102975194998	476.05289862534164	0.0	160.3155251488237	546.866011187757	0.0	276.36386797587994	389.2651480146356	0.0	289.4280645199843	487.524482606878	0.0	276.4845671636156	571.4095893898508	0.0
9	0.15	219.78184539259456	560.7246745206444	0.0	197.71587638243014	569.4368888380776	0.0	207.5638727869934	682.6810020496824	0.0	216.81295975235395	776.1672556278442	0.0	188.4077071434074	808.909561509226	0.0	183.22039737103634	802.0466703335394	0.0	227.17083794356859	791.6447810033546	0.0	244.6558331061659	571.5923560827383	0.0	250.0596966160267	687.9369557832049	0.0	257.4718090048	790.3977406681436	0.0	220.89617024677165	825.4162607833005	0.0	241.52970897214692	828.7805017049318	0.0	269.2486624472014	803.7783059058486	0.0	227.57103376824463	358.8790125172315	0.0	209.91725726513477	275.20160186471435	0.0	178.30592806616193	321.8668946145062	0.0	193.35852969761783	390.1033588942394	0.0	182.8685158668477	475.96782482635615	0.0	160.1758837752511	546.779585513877	0.0	276.35938624410045	389.20311446470555	0.0	289.424541504852	487.51731307684753	0.0	276.48071522025424	571.3538094715229	0.0
